<?xml version="1.0" encoding="UTF-8" standalone="no"?>
<!DOCTYPE svg PUBLIC "-//W3C//DTD SVG 1.1//EN"
 "http://www.w3.org/Graphics/SVG/1.1/DTD/svg11.dtd">
<!-- Generated by graphviz version 2.43.0 (0)
 -->
<!-- Title: %3 Pages: 1 -->
<svg width="1773pt" height="620pt"
 viewBox="0.00 0.00 1773.29 620.00" xmlns="http://www.w3.org/2000/svg" xmlns:xlink="http://www.w3.org/1999/xlink">
<g id="graph0" class="graph" transform="scale(1 1) rotate(0) translate(4 616)">
<title>%3</title>
<polygon fill="white" stroke="transparent" points="-4,4 -4,-616 1769.29,-616 1769.29,4 -4,4"/>
<!-- [root] aws_api_gateway_api_key.sandbox_key (expand) -->
<g id="node1" class="node">
<title>[root] aws_api_gateway_api_key.sandbox_key (expand)</title>
<polygon fill="none" stroke="black" points="393.43,-108 100.43,-108 100.43,-72 393.43,-72 393.43,-108"/>
<text text-anchor="middle" x="246.93" y="-86.3" font-family="Times,serif" font-size="14.00">aws_api_gateway_api_key.sandbox_key</text>
</g>
<!-- [root] provider[&quot;registry.terraform.io/hashicorp/aws&quot;] -->
<g id="node19" class="node">
<title>[root] provider[&quot;registry.terraform.io/hashicorp/aws&quot;]</title>
<polygon fill="none" stroke="black" points="564.93,-36 239.67,-18 564.93,0 890.19,-18 564.93,-36"/>
<text text-anchor="middle" x="564.93" y="-14.3" font-family="Times,serif" font-size="14.00">provider[&quot;registry.terraform.io/hashicorp/aws&quot;]</text>
</g>
<!-- [root] aws_api_gateway_api_key.sandbox_key (expand)&#45;&gt;[root] provider[&quot;registry.terraform.io/hashicorp/aws&quot;] -->
<g id="edge1" class="edge">
<title>[root] aws_api_gateway_api_key.sandbox_key (expand)&#45;&gt;[root] provider[&quot;registry.terraform.io/hashicorp/aws&quot;]</title>
<path fill="none" stroke="black" d="M324.32,-71.97C375.85,-60.62 443.08,-45.82 493.37,-34.75"/>
<polygon fill="black" stroke="black" points="494.18,-38.16 503.19,-32.59 492.67,-31.32 494.18,-38.16"/>
</g>
<!-- [root] aws_api_gateway_deployment.sandbox (expand) -->
<g id="node2" class="node">
<title>[root] aws_api_gateway_deployment.sandbox (expand)</title>
<polygon fill="none" stroke="black" points="501.93,-252 207.93,-252 207.93,-216 501.93,-216 501.93,-252"/>
<text text-anchor="middle" x="354.93" y="-230.3" font-family="Times,serif" font-size="14.00">aws_api_gateway_deployment.sandbox</text>
</g>
<!-- [root] aws_api_gateway_rest_api.api (expand) -->
<g id="node6" class="node">
<title>[root] aws_api_gateway_rest_api.api (expand)</title>
<polygon fill="none" stroke="black" points="588.93,-180 358.93,-180 358.93,-144 588.93,-144 588.93,-180"/>
<text text-anchor="middle" x="473.93" y="-158.3" font-family="Times,serif" font-size="14.00">aws_api_gateway_rest_api.api</text>
</g>
<!-- [root] aws_api_gateway_deployment.sandbox (expand)&#45;&gt;[root] aws_api_gateway_rest_api.api (expand) -->
<g id="edge2" class="edge">
<title>[root] aws_api_gateway_deployment.sandbox (expand)&#45;&gt;[root] aws_api_gateway_rest_api.api (expand)</title>
<path fill="none" stroke="black" d="M384.04,-215.88C399.6,-206.72 418.95,-195.34 435.71,-185.48"/>
<polygon fill="black" stroke="black" points="437.86,-188.28 444.71,-180.19 434.31,-182.24 437.86,-188.28"/>
</g>
<!-- [root] aws_api_gateway_integration.lambda_integration (expand) -->
<g id="node3" class="node">
<title>[root] aws_api_gateway_integration.lambda_integration (expand)</title>
<polygon fill="none" stroke="black" points="1174.43,-468 805.43,-468 805.43,-432 1174.43,-432 1174.43,-468"/>
<text text-anchor="middle" x="989.93" y="-446.3" font-family="Times,serif" font-size="14.00">aws_api_gateway_integration.lambda_integration</text>
</g>
<!-- [root] aws_api_gateway_method.hello_get (expand) -->
<g id="node4" class="node">
<title>[root] aws_api_gateway_method.hello_get (expand)</title>
<polygon fill="none" stroke="black" points="830.43,-396 561.43,-396 561.43,-360 830.43,-360 830.43,-396"/>
<text text-anchor="middle" x="695.93" y="-374.3" font-family="Times,serif" font-size="14.00">aws_api_gateway_method.hello_get</text>
</g>
<!-- [root] aws_api_gateway_integration.lambda_integration (expand)&#45;&gt;[root] aws_api_gateway_method.hello_get (expand) -->
<g id="edge3" class="edge">
<title>[root] aws_api_gateway_integration.lambda_integration (expand)&#45;&gt;[root] aws_api_gateway_method.hello_get (expand)</title>
<path fill="none" stroke="black" d="M918.39,-431.97C875.8,-421.83 821.62,-408.93 777.39,-398.4"/>
<polygon fill="black" stroke="black" points="778.08,-394.96 767.54,-396.05 776.46,-401.77 778.08,-394.96"/>
</g>
<!-- [root] aws_lambda_function.hello_world_function (expand) -->
<g id="node14" class="node">
<title>[root] aws_lambda_function.hello_world_function (expand)</title>
<polygon fill="none" stroke="black" points="1168.93,-396 848.93,-396 848.93,-360 1168.93,-360 1168.93,-396"/>
<text text-anchor="middle" x="1008.93" y="-374.3" font-family="Times,serif" font-size="14.00">aws_lambda_function.hello_world_function</text>
</g>
<!-- [root] aws_api_gateway_integration.lambda_integration (expand)&#45;&gt;[root] aws_lambda_function.hello_world_function (expand) -->
<g id="edge4" class="edge">
<title>[root] aws_api_gateway_integration.lambda_integration (expand)&#45;&gt;[root] aws_lambda_function.hello_world_function (expand)</title>
<path fill="none" stroke="black" d="M994.63,-431.7C996.74,-423.9 999.29,-414.51 1001.65,-405.83"/>
<polygon fill="black" stroke="black" points="1005.05,-406.67 1004.29,-396.1 998.29,-404.84 1005.05,-406.67"/>
</g>
<!-- [root] aws_api_gateway_resource.hello (expand) -->
<g id="node5" class="node">
<title>[root] aws_api_gateway_resource.hello (expand)</title>
<polygon fill="none" stroke="black" points="808.93,-252 560.93,-252 560.93,-216 808.93,-216 808.93,-252"/>
<text text-anchor="middle" x="684.93" y="-230.3" font-family="Times,serif" font-size="14.00">aws_api_gateway_resource.hello</text>
</g>
<!-- [root] aws_api_gateway_method.hello_get (expand)&#45;&gt;[root] aws_api_gateway_resource.hello (expand) -->
<g id="edge5" class="edge">
<title>[root] aws_api_gateway_method.hello_get (expand)&#45;&gt;[root] aws_api_gateway_resource.hello (expand)</title>
<path fill="none" stroke="black" d="M694.6,-359.87C692.73,-335.67 689.28,-291.21 687.05,-262.39"/>
<polygon fill="black" stroke="black" points="690.52,-261.89 686.26,-252.19 683.54,-262.43 690.52,-261.89"/>
</g>
<!-- [root] aws_api_gateway_resource.hello (expand)&#45;&gt;[root] aws_api_gateway_rest_api.api (expand) -->
<g id="edge6" class="edge">
<title>[root] aws_api_gateway_resource.hello (expand)&#45;&gt;[root] aws_api_gateway_rest_api.api (expand)</title>
<path fill="none" stroke="black" d="M633.58,-215.97C603.97,-206.14 566.56,-193.73 535.39,-183.39"/>
<polygon fill="black" stroke="black" points="536.1,-179.94 525.51,-180.11 533.9,-186.58 536.1,-179.94"/>
</g>
<!-- [root] aws_api_gateway_rest_api.api (expand)&#45;&gt;[root] provider[&quot;registry.terraform.io/hashicorp/aws&quot;] -->
<g id="edge7" class="edge">
<title>[root] aws_api_gateway_rest_api.api (expand)&#45;&gt;[root] provider[&quot;registry.terraform.io/hashicorp/aws&quot;]</title>
<path fill="none" stroke="black" d="M484.91,-143.87C500.77,-119.11 530.23,-73.14 548.64,-44.42"/>
<polygon fill="black" stroke="black" points="551.75,-46.06 554.2,-35.75 545.85,-42.28 551.75,-46.06"/>
</g>
<!-- [root] aws_api_gateway_stage.sandbox (expand) -->
<g id="node7" class="node">
<title>[root] aws_api_gateway_stage.sandbox (expand)</title>
<polygon fill="none" stroke="black" points="476.43,-324 227.43,-324 227.43,-288 476.43,-288 476.43,-324"/>
<text text-anchor="middle" x="351.93" y="-302.3" font-family="Times,serif" font-size="14.00">aws_api_gateway_stage.sandbox</text>
</g>
<!-- [root] aws_api_gateway_stage.sandbox (expand)&#45;&gt;[root] aws_api_gateway_deployment.sandbox (expand) -->
<g id="edge8" class="edge">
<title>[root] aws_api_gateway_stage.sandbox (expand)&#45;&gt;[root] aws_api_gateway_deployment.sandbox (expand)</title>
<path fill="none" stroke="black" d="M352.67,-287.7C353,-279.98 353.4,-270.71 353.77,-262.11"/>
<polygon fill="black" stroke="black" points="357.27,-262.25 354.2,-252.1 350.27,-261.95 357.27,-262.25"/>
</g>
<!-- [root] aws_api_gateway_usage_plan.throttletron (expand) -->
<g id="node8" class="node">
<title>[root] aws_api_gateway_usage_plan.throttletron (expand)</title>
<polygon fill="none" stroke="black" points="504.43,-396 189.43,-396 189.43,-360 504.43,-360 504.43,-396"/>
<text text-anchor="middle" x="346.93" y="-374.3" font-family="Times,serif" font-size="14.00">aws_api_gateway_usage_plan.throttletron</text>
</g>
<!-- [root] aws_api_gateway_usage_plan.throttletron (expand)&#45;&gt;[root] aws_api_gateway_stage.sandbox (expand) -->
<g id="edge9" class="edge">
<title>[root] aws_api_gateway_usage_plan.throttletron (expand)&#45;&gt;[root] aws_api_gateway_stage.sandbox (expand)</title>
<path fill="none" stroke="black" d="M348.17,-359.7C348.72,-351.98 349.38,-342.71 349.99,-334.11"/>
<polygon fill="black" stroke="black" points="353.49,-334.33 350.71,-324.1 346.5,-333.83 353.49,-334.33"/>
</g>
<!-- [root] aws_api_gateway_usage_plan_key.sandbox_key (expand) -->
<g id="node9" class="node">
<title>[root] aws_api_gateway_usage_plan_key.sandbox_key (expand)</title>
<polygon fill="none" stroke="black" points="354.93,-468 4.93,-468 4.93,-432 354.93,-432 354.93,-468"/>
<text text-anchor="middle" x="179.93" y="-446.3" font-family="Times,serif" font-size="14.00">aws_api_gateway_usage_plan_key.sandbox_key</text>
</g>
<!-- [root] aws_api_gateway_usage_plan_key.sandbox_key (expand)&#45;&gt;[root] aws_api_gateway_api_key.sandbox_key (expand) -->
<g id="edge10" class="edge">
<title>[root] aws_api_gateway_usage_plan_key.sandbox_key (expand)&#45;&gt;[root] aws_api_gateway_api_key.sandbox_key (expand)</title>
<path fill="none" stroke="black" d="M176.09,-431.61C170.53,-404.94 160.93,-352.27 160.93,-307 160.93,-307 160.93,-307 160.93,-233 160.93,-186.31 195.37,-141.84 220.66,-115.49"/>
<polygon fill="black" stroke="black" points="223.3,-117.8 227.84,-108.23 218.32,-112.88 223.3,-117.8"/>
</g>
<!-- [root] aws_api_gateway_usage_plan_key.sandbox_key (expand)&#45;&gt;[root] aws_api_gateway_usage_plan.throttletron (expand) -->
<g id="edge11" class="edge">
<title>[root] aws_api_gateway_usage_plan_key.sandbox_key (expand)&#45;&gt;[root] aws_api_gateway_usage_plan.throttletron (expand)</title>
<path fill="none" stroke="black" d="M220.78,-431.88C243.71,-422.26 272.51,-410.19 296.8,-400.01"/>
<polygon fill="black" stroke="black" points="298.34,-403.16 306.21,-396.07 295.63,-396.71 298.34,-403.16"/>
</g>
<!-- [root] aws_db_instance.db (expand) -->
<g id="node10" class="node">
<title>[root] aws_db_instance.db (expand)</title>
<polygon fill="none" stroke="black" points="984.93,-252 826.93,-252 826.93,-216 984.93,-216 984.93,-252"/>
<text text-anchor="middle" x="905.93" y="-230.3" font-family="Times,serif" font-size="14.00">aws_db_instance.db</text>
</g>
<!-- [root] aws_security_group.ned_kelly_sg (expand) -->
<g id="node16" class="node">
<title>[root] aws_security_group.ned_kelly_sg (expand)</title>
<polygon fill="none" stroke="black" points="858.93,-180 606.93,-180 606.93,-144 858.93,-144 858.93,-180"/>
<text text-anchor="middle" x="732.93" y="-158.3" font-family="Times,serif" font-size="14.00">aws_security_group.ned_kelly_sg</text>
</g>
<!-- [root] aws_db_instance.db (expand)&#45;&gt;[root] aws_security_group.ned_kelly_sg (expand) -->
<g id="edge12" class="edge">
<title>[root] aws_db_instance.db (expand)&#45;&gt;[root] aws_security_group.ned_kelly_sg (expand)</title>
<path fill="none" stroke="black" d="M863.61,-215.88C839.75,-206.22 809.76,-194.09 784.53,-183.88"/>
<polygon fill="black" stroke="black" points="785.7,-180.57 775.11,-180.07 783.07,-187.06 785.7,-180.57"/>
</g>
<!-- [root] var.db_password -->
<g id="node20" class="node">
<title>[root] var.db_password</title>
<polygon fill="none" stroke="black" points="1006.93,-180 876.93,-180 876.93,-144 1012.93,-144 1012.93,-174 1006.93,-180"/>
<polyline fill="none" stroke="black" points="1006.93,-180 1006.93,-174 "/>
<polyline fill="none" stroke="black" points="1012.93,-174 1006.93,-174 "/>
<text text-anchor="middle" x="944.93" y="-158.3" font-family="Times,serif" font-size="14.00">var.db_password</text>
</g>
<!-- [root] aws_db_instance.db (expand)&#45;&gt;[root] var.db_password -->
<g id="edge13" class="edge">
<title>[root] aws_db_instance.db (expand)&#45;&gt;[root] var.db_password</title>
<path fill="none" stroke="black" d="M915.57,-215.7C920.06,-207.64 925.49,-197.89 930.45,-188.98"/>
<polygon fill="black" stroke="black" points="933.59,-190.54 935.4,-180.1 927.48,-187.14 933.59,-190.54"/>
</g>
<!-- [root] aws_default_subnet.default_subnet (expand) -->
<g id="node11" class="node">
<title>[root] aws_default_subnet.default_subnet (expand)</title>
<polygon fill="none" stroke="black" points="1012.43,-324 745.43,-324 745.43,-288 1012.43,-288 1012.43,-324"/>
<text text-anchor="middle" x="878.93" y="-302.3" font-family="Times,serif" font-size="14.00">aws_default_subnet.default_subnet</text>
</g>
<!-- [root] aws_default_subnet.default_subnet (expand)&#45;&gt;[root] aws_db_instance.db (expand) -->
<g id="edge14" class="edge">
<title>[root] aws_default_subnet.default_subnet (expand)&#45;&gt;[root] aws_db_instance.db (expand)</title>
<path fill="none" stroke="black" d="M885.6,-287.7C888.65,-279.81 892.31,-270.3 895.69,-261.55"/>
<polygon fill="black" stroke="black" points="899,-262.69 899.33,-252.1 892.47,-260.17 899,-262.69"/>
</g>
<!-- [root] aws_default_vpc.default (expand) -->
<g id="node12" class="node">
<title>[root] aws_default_vpc.default (expand)</title>
<polygon fill="none" stroke="black" points="787.93,-108 599.93,-108 599.93,-72 787.93,-72 787.93,-108"/>
<text text-anchor="middle" x="693.93" y="-86.3" font-family="Times,serif" font-size="14.00">aws_default_vpc.default</text>
</g>
<!-- [root] aws_default_vpc.default (expand)&#45;&gt;[root] provider[&quot;registry.terraform.io/hashicorp/aws&quot;] -->
<g id="edge15" class="edge">
<title>[root] aws_default_vpc.default (expand)&#45;&gt;[root] provider[&quot;registry.terraform.io/hashicorp/aws&quot;]</title>
<path fill="none" stroke="black" d="M662.37,-71.88C644.3,-62.07 621.5,-49.7 602.5,-39.39"/>
<polygon fill="black" stroke="black" points="603.98,-36.21 593.52,-34.51 600.64,-42.36 603.98,-36.21"/>
</g>
<!-- [root] aws_iam_role.hello_world_lambda_role (expand) -->
<g id="node13" class="node">
<title>[root] aws_iam_role.hello_world_lambda_role (expand)</title>
<polygon fill="none" stroke="black" points="1156.93,-108 864.93,-108 864.93,-72 1156.93,-72 1156.93,-108"/>
<text text-anchor="middle" x="1010.93" y="-86.3" font-family="Times,serif" font-size="14.00">aws_iam_role.hello_world_lambda_role</text>
</g>
<!-- [root] aws_iam_role.hello_world_lambda_role (expand)&#45;&gt;[root] provider[&quot;registry.terraform.io/hashicorp/aws&quot;] -->
<g id="edge16" class="edge">
<title>[root] aws_iam_role.hello_world_lambda_role (expand)&#45;&gt;[root] provider[&quot;registry.terraform.io/hashicorp/aws&quot;]</title>
<path fill="none" stroke="black" d="M902.4,-71.97C826.55,-60.06 726.46,-44.35 655.02,-33.14"/>
<polygon fill="black" stroke="black" points="655.56,-29.68 645.14,-31.59 654.47,-36.6 655.56,-29.68"/>
</g>
<!-- [root] aws_lambda_function.hello_world_function (expand)&#45;&gt;[root] aws_default_subnet.default_subnet (expand) -->
<g id="edge17" class="edge">
<title>[root] aws_lambda_function.hello_world_function (expand)&#45;&gt;[root] aws_default_subnet.default_subnet (expand)</title>
<path fill="none" stroke="black" d="M977.13,-359.88C959.82,-350.55 938.21,-338.92 919.67,-328.94"/>
<polygon fill="black" stroke="black" points="921.32,-325.85 910.85,-324.19 918,-332.01 921.32,-325.85"/>
</g>
<!-- [root] aws_lambda_function.hello_world_function (expand)&#45;&gt;[root] aws_iam_role.hello_world_lambda_role (expand) -->
<g id="edge18" class="edge">
<title>[root] aws_lambda_function.hello_world_function (expand)&#45;&gt;[root] aws_iam_role.hello_world_lambda_role (expand)</title>
<path fill="none" stroke="black" d="M1014.34,-359.53C1017.23,-349.29 1020.48,-336.04 1021.93,-324 1031.53,-244.58 1030.1,-223.58 1021.93,-144 1021.05,-135.46 1019.4,-126.26 1017.64,-117.96"/>
<polygon fill="black" stroke="black" points="1021.01,-117.03 1015.39,-108.05 1014.19,-118.57 1021.01,-117.03"/>
</g>
<!-- [root] data.archive_file.hello_world_source (expand) -->
<g id="node17" class="node">
<title>[root] data.archive_file.hello_world_source (expand)</title>
<polygon fill="none" stroke="black" points="1510.93,-324 1236.93,-324 1236.93,-288 1510.93,-288 1510.93,-324"/>
<text text-anchor="middle" x="1373.93" y="-302.3" font-family="Times,serif" font-size="14.00">data.archive_file.hello_world_source</text>
</g>
<!-- [root] aws_lambda_function.hello_world_function (expand)&#45;&gt;[root] data.archive_file.hello_world_source (expand) -->
<g id="edge19" class="edge">
<title>[root] aws_lambda_function.hello_world_function (expand)&#45;&gt;[root] data.archive_file.hello_world_source (expand)</title>
<path fill="none" stroke="black" d="M1097.75,-359.97C1151.29,-349.7 1219.58,-336.6 1274.86,-326"/>
<polygon fill="black" stroke="black" points="1275.86,-329.37 1285.03,-324.05 1274.55,-322.5 1275.86,-329.37"/>
</g>
<!-- [root] aws_lambda_permission.hello_world_invoke_permission (expand) -->
<g id="node15" class="node">
<title>[root] aws_lambda_permission.hello_world_invoke_permission (expand)</title>
<polygon fill="none" stroke="black" points="786.93,-468 372.93,-468 372.93,-432 786.93,-432 786.93,-468"/>
<text text-anchor="middle" x="579.93" y="-446.3" font-family="Times,serif" font-size="14.00">aws_lambda_permission.hello_world_invoke_permission</text>
</g>
<!-- [root] aws_lambda_permission.hello_world_invoke_permission (expand)&#45;&gt;[root] aws_api_gateway_rest_api.api (expand) -->
<g id="edge20" class="edge">
<title>[root] aws_lambda_permission.hello_world_invoke_permission (expand)&#45;&gt;[root] aws_api_gateway_rest_api.api (expand)</title>
<path fill="none" stroke="black" d="M569.4,-431.87C563.56,-421.74 556.56,-408.49 551.93,-396 523.41,-319.07 544.14,-291.03 510.93,-216 506.68,-206.4 500.6,-196.75 494.59,-188.35"/>
<polygon fill="black" stroke="black" points="497.23,-186.03 488.44,-180.12 491.62,-190.22 497.23,-186.03"/>
</g>
<!-- [root] aws_lambda_permission.hello_world_invoke_permission (expand)&#45;&gt;[root] aws_lambda_function.hello_world_function (expand) -->
<g id="edge21" class="edge">
<title>[root] aws_lambda_permission.hello_world_invoke_permission (expand)&#45;&gt;[root] aws_lambda_function.hello_world_function (expand)</title>
<path fill="none" stroke="black" d="M684.33,-431.97C747.9,-421.59 829.19,-408.33 894.51,-397.67"/>
<polygon fill="black" stroke="black" points="895.13,-401.11 904.44,-396.05 894,-394.21 895.13,-401.11"/>
</g>
<!-- [root] aws_security_group.ned_kelly_sg (expand)&#45;&gt;[root] aws_default_vpc.default (expand) -->
<g id="edge22" class="edge">
<title>[root] aws_security_group.ned_kelly_sg (expand)&#45;&gt;[root] aws_default_vpc.default (expand)</title>
<path fill="none" stroke="black" d="M723.29,-143.7C718.8,-135.64 713.37,-125.89 708.41,-116.98"/>
<polygon fill="black" stroke="black" points="711.38,-115.14 703.46,-108.1 705.27,-118.54 711.38,-115.14"/>
</g>
<!-- [root] provider[&quot;registry.terraform.io/hashicorp/archive&quot;] -->
<g id="node18" class="node">
<title>[root] provider[&quot;registry.terraform.io/hashicorp/archive&quot;]</title>
<polygon fill="none" stroke="black" points="1416.93,-252 1068.71,-234 1416.93,-216 1765.15,-234 1416.93,-252"/>
<text text-anchor="middle" x="1416.93" y="-230.3" font-family="Times,serif" font-size="14.00">provider[&quot;registry.terraform.io/hashicorp/archive&quot;]</text>
</g>
<!-- [root] data.archive_file.hello_world_source (expand)&#45;&gt;[root] provider[&quot;registry.terraform.io/hashicorp/archive&quot;] -->
<g id="edge23" class="edge">
<title>[root] data.archive_file.hello_world_source (expand)&#45;&gt;[root] provider[&quot;registry.terraform.io/hashicorp/archive&quot;]</title>
<path fill="none" stroke="black" d="M1384.56,-287.7C1389.63,-279.44 1395.8,-269.39 1401.39,-260.3"/>
<polygon fill="black" stroke="black" points="1404.47,-261.98 1406.72,-251.62 1398.5,-258.31 1404.47,-261.98"/>
</g>
<!-- [root] meta.count&#45;boundary (EachMode fixup) -->
<g id="node21" class="node">
<title>[root] meta.count&#45;boundary (EachMode fixup)</title>
<ellipse fill="none" stroke="black" cx="222.93" cy="-522" rx="222.86" ry="18"/>
<text text-anchor="middle" x="222.93" y="-518.3" font-family="Times,serif" font-size="14.00">[root] meta.count&#45;boundary (EachMode fixup)</text>
</g>
<!-- [root] meta.count&#45;boundary (EachMode fixup)&#45;&gt;[root] aws_api_gateway_integration.lambda_integration (expand) -->
<g id="edge24" class="edge">
<title>[root] meta.count&#45;boundary (EachMode fixup)&#45;&gt;[root] aws_api_gateway_integration.lambda_integration (expand)</title>
<path fill="none" stroke="black" d="M364.5,-508.08C485.59,-497.03 661.07,-481.01 795.36,-468.76"/>
<polygon fill="black" stroke="black" points="795.72,-472.24 805.36,-467.84 795.08,-465.27 795.72,-472.24"/>
</g>
<!-- [root] meta.count&#45;boundary (EachMode fixup)&#45;&gt;[root] aws_api_gateway_usage_plan_key.sandbox_key (expand) -->
<g id="edge25" class="edge">
<title>[root] meta.count&#45;boundary (EachMode fixup)&#45;&gt;[root] aws_api_gateway_usage_plan_key.sandbox_key (expand)</title>
<path fill="none" stroke="black" d="M212.3,-503.7C207.3,-495.56 201.24,-485.69 195.72,-476.7"/>
<polygon fill="black" stroke="black" points="198.65,-474.79 190.44,-468.1 192.69,-478.46 198.65,-474.79"/>
</g>
<!-- [root] meta.count&#45;boundary (EachMode fixup)&#45;&gt;[root] aws_lambda_permission.hello_world_invoke_permission (expand) -->
<g id="edge26" class="edge">
<title>[root] meta.count&#45;boundary (EachMode fixup)&#45;&gt;[root] aws_lambda_permission.hello_world_invoke_permission (expand)</title>
<path fill="none" stroke="black" d="M303.49,-505.2C356.75,-494.76 426.85,-481.02 483.13,-469.98"/>
<polygon fill="black" stroke="black" points="483.97,-473.38 493.11,-468.02 482.62,-466.51 483.97,-473.38"/>
</g>
<!-- [root] provider[&quot;registry.terraform.io/hashicorp/archive&quot;] (close) -->
<g id="node22" class="node">
<title>[root] provider[&quot;registry.terraform.io/hashicorp/archive&quot;] (close)</title>
<ellipse fill="none" stroke="black" cx="1373.93" cy="-522" rx="308.15" ry="18"/>
<text text-anchor="middle" x="1373.93" y="-518.3" font-family="Times,serif" font-size="14.00">[root] provider[&quot;registry.terraform.io/hashicorp/archive&quot;] (close)</text>
</g>
<!-- [root] provider[&quot;registry.terraform.io/hashicorp/archive&quot;] (close)&#45;&gt;[root] data.archive_file.hello_world_source (expand) -->
<g id="edge27" class="edge">
<title>[root] provider[&quot;registry.terraform.io/hashicorp/archive&quot;] (close)&#45;&gt;[root] data.archive_file.hello_world_source (expand)</title>
<path fill="none" stroke="black" d="M1373.93,-503.85C1373.93,-466.83 1373.93,-379.18 1373.93,-334.39"/>
<polygon fill="black" stroke="black" points="1377.43,-334.23 1373.93,-324.23 1370.43,-334.23 1377.43,-334.23"/>
</g>
<!-- [root] provider[&quot;registry.terraform.io/hashicorp/aws&quot;] (close) -->
<g id="node23" class="node">
<title>[root] provider[&quot;registry.terraform.io/hashicorp/aws&quot;] (close)</title>
<ellipse fill="none" stroke="black" cx="755.93" cy="-522" rx="291.65" ry="18"/>
<text text-anchor="middle" x="755.93" y="-518.3" font-family="Times,serif" font-size="14.00">[root] provider[&quot;registry.terraform.io/hashicorp/aws&quot;] (close)</text>
</g>
<!-- [root] provider[&quot;registry.terraform.io/hashicorp/aws&quot;] (close)&#45;&gt;[root] aws_api_gateway_integration.lambda_integration (expand) -->
<g id="edge28" class="edge">
<title>[root] provider[&quot;registry.terraform.io/hashicorp/aws&quot;] (close)&#45;&gt;[root] aws_api_gateway_integration.lambda_integration (expand)</title>
<path fill="none" stroke="black" d="M811.68,-504.32C845.17,-494.31 887.97,-481.5 923.25,-470.95"/>
<polygon fill="black" stroke="black" points="924.4,-474.26 932.98,-468.04 922.4,-467.55 924.4,-474.26"/>
</g>
<!-- [root] provider[&quot;registry.terraform.io/hashicorp/aws&quot;] (close)&#45;&gt;[root] aws_api_gateway_usage_plan_key.sandbox_key (expand) -->
<g id="edge29" class="edge">
<title>[root] provider[&quot;registry.terraform.io/hashicorp/aws&quot;] (close)&#45;&gt;[root] aws_api_gateway_usage_plan_key.sandbox_key (expand)</title>
<path fill="none" stroke="black" d="M630.24,-505.72C541.93,-494.99 423.39,-480.59 330.1,-469.25"/>
<polygon fill="black" stroke="black" points="330.35,-465.76 320,-468.02 329.51,-472.7 330.35,-465.76"/>
</g>
<!-- [root] provider[&quot;registry.terraform.io/hashicorp/aws&quot;] (close)&#45;&gt;[root] aws_lambda_permission.hello_world_invoke_permission (expand) -->
<g id="edge30" class="edge">
<title>[root] provider[&quot;registry.terraform.io/hashicorp/aws&quot;] (close)&#45;&gt;[root] aws_lambda_permission.hello_world_invoke_permission (expand)</title>
<path fill="none" stroke="black" d="M713.33,-504.05C688.86,-494.33 657.95,-482.03 632.05,-471.73"/>
<polygon fill="black" stroke="black" points="633.34,-468.48 622.75,-468.03 630.75,-474.98 633.34,-468.48"/>
</g>
<!-- [root] root -->
<g id="node24" class="node">
<title>[root] root</title>
<ellipse fill="none" stroke="black" cx="755.93" cy="-594" rx="58.49" ry="18"/>
<text text-anchor="middle" x="755.93" y="-590.3" font-family="Times,serif" font-size="14.00">[root] root</text>
</g>
<!-- [root] root&#45;&gt;[root] meta.count&#45;boundary (EachMode fixup) -->
<g id="edge31" class="edge">
<title>[root] root&#45;&gt;[root] meta.count&#45;boundary (EachMode fixup)</title>
<path fill="none" stroke="black" d="M703.37,-586.1C620.51,-575.22 457.36,-553.79 344.32,-538.94"/>
<polygon fill="black" stroke="black" points="344.59,-535.45 334.22,-537.62 343.68,-542.39 344.59,-535.45"/>
</g>
<!-- [root] root&#45;&gt;[root] provider[&quot;registry.terraform.io/hashicorp/archive&quot;] (close) -->
<g id="edge32" class="edge">
<title>[root] root&#45;&gt;[root] provider[&quot;registry.terraform.io/hashicorp/archive&quot;] (close)</title>
<path fill="none" stroke="black" d="M809.96,-586.88C902.78,-576.37 1095.46,-554.54 1229.62,-539.35"/>
<polygon fill="black" stroke="black" points="1230.03,-542.82 1239.58,-538.22 1229.25,-535.87 1230.03,-542.82"/>
</g>
<!-- [root] root&#45;&gt;[root] provider[&quot;registry.terraform.io/hashicorp/aws&quot;] (close) -->
<g id="edge33" class="edge">
<title>[root] root&#45;&gt;[root] provider[&quot;registry.terraform.io/hashicorp/aws&quot;] (close)</title>
<path fill="none" stroke="black" d="M755.93,-575.7C755.93,-567.98 755.93,-558.71 755.93,-550.11"/>
<polygon fill="black" stroke="black" points="759.43,-550.1 755.93,-540.1 752.43,-550.1 759.43,-550.1"/>
</g>
</g>
</svg>
